<svg xmlns="http://www.w3.org/2000/svg" xmlns:xlink="http://www.w3.org/1999/xlink" width="50" zoomAndPan="magnify" viewBox="0 0 37.5 32.999998" height="44" preserveAspectRatio="xMidYMid meet" version="1.0"><defs><g/><clipPath id="1177846854"><path d="M 0 0.21875 L 37.007812 0.21875 L 37.007812 32.78125 L 0 32.78125 Z M 0 0.21875 " clip-rule="nonzero"/></clipPath></defs><g clip-path="url(#1177846854)"><path fill="#ffffff" d="M 0 0.21875 L 37.007812 0.21875 L 37.007812 32.78125 L 0 32.78125 Z M 0 0.21875 " fill-opacity="1" fill-rule="nonzero"/><path fill="#ffffff" d="M 0 0.21875 L 37.007812 0.21875 L 37.007812 32.78125 L 0 32.78125 Z M 0 0.21875 " fill-opacity="1" fill-rule="nonzero"/></g><g fill="#000000" fill-opacity="1"><g transform="translate(6.405169, 29.419511)"><g><path d="M 21.5625 -2.609375 L 15.59375 -10.859375 C 19.703125 -12.015625 21.90625 -14.890625 21.90625 -18.28125 C 21.859375 -23.921875 17.015625 -26.484375 10.640625 -26.484375 L 2.984375 -26.484375 C 2.53125 -26.484375 2.234375 -26.34375 2.234375 -26.046875 L 2.234375 -25.96875 C 2.234375 -25.265625 3.578125 -25.21875 3.578125 -23.875 L 3.578125 -2.609375 C 3.578125 -1.265625 2.234375 -1.234375 2.234375 -0.515625 L 2.234375 -0.453125 C 2.234375 -0.15625 2.53125 0 2.984375 0 L 7.6875 0 C 8.140625 0 8.4375 -0.15625 8.4375 -0.453125 L 8.4375 -0.515625 C 8.4375 -1.234375 6.984375 -1.265625 6.984375 -2.609375 L 6.984375 -10.21875 L 11.453125 -10.296875 C 11.796875 -10.296875 12.09375 -10.296875 12.390625 -10.328125 L 17.984375 -2.609375 C 18.84375 -1.234375 17.234375 -1.234375 17.234375 -0.515625 L 17.234375 -0.453125 C 17.234375 -0.15625 17.53125 0 17.984375 0 L 23.171875 0 C 23.625 0 23.921875 -0.15625 23.921875 -0.453125 L 23.921875 -0.515625 C 23.921875 -1.234375 22.578125 -1.1875 21.5625 -2.609375 Z M 11.125 -11.796875 L 8.546875 -11.796875 C 7.53125 -11.796875 6.984375 -12.3125 6.984375 -13.546875 L 6.984375 -23.6875 C 6.984375 -24.484375 7.28125 -24.96875 7.953125 -24.96875 L 10.453125 -24.96875 C 14.625 -24.96875 18.4375 -22.71875 18.4375 -17.796875 C 18.4375 -14.03125 15.453125 -11.796875 11.125 -11.796875 Z M 11.125 -11.796875 "/></g></g></g></svg>