<svg xmlns="http://www.w3.org/2000/svg" xmlns:xlink="http://www.w3.org/1999/xlink" width="300" zoomAndPan="magnify" viewBox="0 0 224.87999 89.999999" height="120" preserveAspectRatio="xMidYMid meet" version="1.0"><defs><g/></defs><g fill="#ffffff" fill-opacity="1"><g transform="translate(-4.374412, 84.042985)"><g><path d="M 64.703125 -7.828125 L 46.796875 -32.578125 C 59.109375 -36.046875 65.703125 -44.65625 65.703125 -54.84375 C 65.59375 -71.75 51.046875 -79.46875 31.90625 -79.46875 L 8.953125 -79.46875 C 7.609375 -79.46875 6.71875 -79.03125 6.71875 -78.125 L 6.71875 -77.90625 C 6.71875 -75.78125 10.75 -75.671875 10.75 -71.640625 L 10.75 -7.828125 C 10.75 -3.8125 6.71875 -3.6875 6.71875 -1.5625 L 6.71875 -1.34375 C 6.71875 -0.453125 7.609375 0 8.953125 0 L 23.0625 0 C 24.40625 0 25.296875 -0.453125 25.296875 -1.34375 L 25.296875 -1.5625 C 25.296875 -3.6875 20.9375 -3.8125 20.9375 -7.828125 L 20.9375 -30.671875 L 34.359375 -30.890625 C 35.375 -30.890625 36.265625 -30.890625 37.15625 -31 L 53.953125 -7.828125 C 56.53125 -3.6875 51.71875 -3.6875 51.71875 -1.5625 L 51.71875 -1.34375 C 51.71875 -0.453125 52.609375 0 53.953125 0 L 69.515625 0 C 70.859375 0 71.75 -0.453125 71.75 -1.34375 L 71.75 -1.5625 C 71.75 -3.6875 67.71875 -3.578125 64.703125 -7.828125 Z M 33.359375 -35.375 L 25.640625 -35.375 C 22.609375 -35.375 20.9375 -36.9375 20.9375 -40.640625 L 20.9375 -71.078125 C 20.9375 -73.4375 21.828125 -74.890625 23.84375 -74.890625 L 31.34375 -74.890625 C 43.875 -74.890625 55.296875 -68.171875 55.296875 -53.390625 C 55.296875 -42.09375 46.34375 -35.375 33.359375 -35.375 Z M 33.359375 -35.375 "/></g></g></g><g fill="#ffffff" fill-opacity="1"><g transform="translate(68.160397, 84.042985)"><g><path d="M 50.140625 -8.953125 L 47.90625 -31.234375 C 46.453125 -46 38.171875 -54.84375 24.40625 -54.84375 C 12.203125 -54.84375 4.59375 -48.578125 4.59375 -42.640625 C 4.59375 -40.078125 6.265625 -38.5 8.953125 -38.5 C 14.546875 -38.5 12.765625 -51.265625 24.40625 -51.265625 C 33.359375 -51.265625 36.9375 -44.109375 38.171875 -30.890625 L 38.390625 -27.875 C 35.375 -30.671875 30.5625 -32.34375 24.625 -32.34375 C 12.984375 -32.34375 4.03125 -26.53125 4.140625 -15.78125 C 4.140625 -5.03125 12.65625 1.125 24.96875 1.125 C 33.140625 1.125 38.5 -2.015625 41.078125 -6.71875 C 41.53125 -0.5625 44.21875 0.671875 49.25 0.671875 C 53.390625 0.671875 56.421875 0 56.421875 -1.671875 C 56.421875 -4.484375 50.8125 -2.015625 50.140625 -8.953125 Z M 27.421875 -2.46875 C 19.359375 -2.46875 14 -8.953125 14 -17.125 C 14 -24.0625 19.25 -28.765625 26.859375 -28.765625 C 33.46875 -28.765625 38.0625 -25.078125 39.171875 -19.8125 L 39.625 -14.78125 C 39.84375 -7.953125 34.921875 -2.46875 27.421875 -2.46875 Z M 27.421875 -2.46875 "/></g></g></g><g fill="#ffffff" fill-opacity="1"><g transform="translate(124.800235, 84.042985)"><g><path d="M 13.4375 -64.359375 C 17.796875 -64.359375 20.703125 -67.15625 20.703125 -71.296875 C 20.703125 -75.453125 17.796875 -78.359375 13.4375 -78.359375 C 8.84375 -78.359375 5.9375 -75.453125 5.9375 -71.296875 C 5.9375 -67.15625 8.84375 -64.359375 13.4375 -64.359375 Z M 6.9375 0 L 20.703125 0 C 22.046875 0 23.0625 -0.5625 23.0625 -1.453125 L 23.0625 -1.90625 C 23.0625 -4.03125 18.578125 -4.03125 18.578125 -7.953125 L 18.578125 -52.828125 C 18.578125 -54.40625 17.46875 -55.515625 15.109375 -54.40625 L 6.5 -50.140625 C 5.484375 -49.59375 4.8125 -49.25 4.8125 -48.46875 L 4.8125 -48.25 C 4.8125 -46.5625 8.84375 -45.671875 8.84375 -41.3125 L 8.84375 -7.953125 C 8.84375 -4.03125 4.8125 -4.03125 4.8125 -1.90625 L 4.8125 -1.453125 C 4.8125 -0.5625 5.59375 0 6.9375 0 Z M 6.9375 0 "/></g></g></g><g fill="#ffffff" fill-opacity="1"><g transform="translate(152.000786, 84.042985)"><g><path d="M 26.1875 1 C 40.078125 1 48.8125 -5.703125 48.8125 -14.109375 C 48.8125 -36.484375 14.65625 -25.515625 14.65625 -41.640625 C 14.65625 -47.234375 19.703125 -51.375 26.1875 -51.375 C 39.96875 -51.375 37.15625 -37.71875 43.546875 -37.71875 C 45.78125 -37.71875 47.578125 -39.40625 47.578125 -41.640625 C 47.578125 -47.6875 39.625 -54.84375 25.75 -54.84375 C 13.4375 -54.84375 4.703125 -48.140625 4.703125 -39.515625 C 4.703125 -17.46875 38.953125 -28.546875 38.953125 -12.09375 C 38.953125 -5.703125 33.359375 -2.234375 26.1875 -2.234375 C 11.1875 -2.234375 14.78125 -15.890625 7.828125 -15.890625 C 5.265625 -15.890625 3.46875 -14.4375 3.46875 -11.75 C 3.46875 -6.5 11.3125 1 26.1875 1 Z M 26.1875 1 "/></g></g></g><g fill="#ffffff" fill-opacity="1"><g transform="translate(204.275111, 84.042985)"><g><path d="M 12.53125 1.125 C 16.453125 1.125 19.59375 -1.234375 19.59375 -5.484375 C 19.59375 -9.96875 16.453125 -12.3125 12.53125 -12.3125 C 8.5 -12.3125 5.375 -9.96875 5.375 -5.484375 C 5.375 -1.234375 8.5 1.125 12.53125 1.125 Z M 12.53125 1.125 "/></g></g></g></svg>